<?xml version="1.0" encoding="UTF-8" standalone="no"?><!-- Generator: Gravit.io --><svg xmlns="http://www.w3.org/2000/svg" xmlns:xlink="http://www.w3.org/1999/xlink" style="isolation:isolate" viewBox="0 0 730 800" width="730pt" height="800pt"><defs><clipPath id="_clipPath_CNU7OQQnEJADLo7pZkio7lNY5BN6UGnN"><rect width="730" height="800"/></clipPath></defs><g clip-path="url(#_clipPath_CNU7OQQnEJADLo7pZkio7lNY5BN6UGnN)"><clipPath id="_clipPath_xnqu3C2YGPmLKKoT4ubxZuYBfxlKS20O"><rect x="-33.897" y="-10.5" width="747.794" height="819.5" transform="matrix(1,0,0,1,0,0)" fill="rgb(255,255,255)"/></clipPath><g clip-path="url(#_clipPath_xnqu3C2YGPmLKKoT4ubxZuYBfxlKS20O)"><g><path d=" M 593.526 -87.165 C 549.465 59.116 679.885 67.928 648.161 164.861 C 616.437 261.794 683.409 268.844 664.023 355.203 C 644.636 441.562 609.388 469.761 619.962 505.009 C 630.536 540.257 688.696 577.268 692.221 619.566 C 695.746 661.865 630.536 705.925 644.636 794.046 Q 658.735 882.167 723.945 965.001 L 574.139 965.001 L 415.521 965.001 L 131.771 945.615 L -197.802 936.802 L -173.128 365.778 L -178.416 -182.336 Q 637.586 -233.447 593.526 -87.165 Z " fill="rgb(21,26,32)"/></g></g></g></svg>